<mxfile host="app.diagrams.net" agent="Mozilla/5.0 (Windows NT 10.0; Win64; x64) AppleWebKit/537.36 (KHTML, like Gecko) Chrome/128.0.0.0 Safari/537.36" version="24.7.12">
  <diagram name="Page-1" id="cI8d7p_5XgW21QERW94D">
    <mxGraphModel dx="836" dy="434" grid="1" gridSize="10" guides="1" tooltips="1" connect="1" arrows="1" fold="1" page="1" pageScale="1" pageWidth="1169" pageHeight="1654" math="1" shadow="0">
      <root>
        <mxCell id="0" />
        <mxCell id="1" parent="0" />
        <mxCell id="v-ShWHaZnhyQrc3aQkjm-1" value="$$x_0$$" style="ellipse;whiteSpace=wrap;html=1;aspect=fixed;fontSize=20;" parent="1" vertex="1">
          <mxGeometry x="40" y="70" width="50" height="50" as="geometry" />
        </mxCell>
        <mxCell id="tr2L6LvXzopLyFMbQWRh-1" value="$$x_T$$" style="ellipse;whiteSpace=wrap;html=1;aspect=fixed;fontSize=20;" vertex="1" parent="1">
          <mxGeometry x="580" y="70" width="50" height="50" as="geometry" />
        </mxCell>
        <mxCell id="tr2L6LvXzopLyFMbQWRh-2" value="$$x_t$$" style="ellipse;whiteSpace=wrap;html=1;aspect=fixed;fontSize=20;" vertex="1" parent="1">
          <mxGeometry x="380" y="70" width="50" height="50" as="geometry" />
        </mxCell>
        <mxCell id="tr2L6LvXzopLyFMbQWRh-3" value="$$x_{t-1}$$" style="ellipse;whiteSpace=wrap;html=1;aspect=fixed;fontSize=20;" vertex="1" parent="1">
          <mxGeometry x="240" y="70" width="50" height="50" as="geometry" />
        </mxCell>
        <mxCell id="tr2L6LvXzopLyFMbQWRh-4" value="$$q(x_t \mid x_{t-1})$$" style="text;html=1;align=center;verticalAlign=middle;whiteSpace=wrap;rounded=0;" vertex="1" parent="1">
          <mxGeometry x="300" y="60" width="60" height="30" as="geometry" />
        </mxCell>
        <mxCell id="tr2L6LvXzopLyFMbQWRh-5" value="$$p_\theta(x_{t-1} \mid x_t)$$" style="text;html=1;align=center;verticalAlign=middle;whiteSpace=wrap;rounded=0;" vertex="1" parent="1">
          <mxGeometry x="300" y="150" width="60" height="30" as="geometry" />
        </mxCell>
        <mxCell id="tr2L6LvXzopLyFMbQWRh-6" value="" style="endArrow=classic;html=1;rounded=0;entryX=0;entryY=0.5;entryDx=0;entryDy=0;" edge="1" parent="1" target="tr2L6LvXzopLyFMbQWRh-2">
          <mxGeometry width="50" height="50" relative="1" as="geometry">
            <mxPoint x="290" y="94.68" as="sourcePoint" />
            <mxPoint x="340" y="94.68" as="targetPoint" />
          </mxGeometry>
        </mxCell>
        <mxCell id="tr2L6LvXzopLyFMbQWRh-7" value="" style="endArrow=classic;html=1;rounded=0;" edge="1" parent="1">
          <mxGeometry width="50" height="50" relative="1" as="geometry">
            <mxPoint x="90" y="94.68" as="sourcePoint" />
            <mxPoint x="130" y="95" as="targetPoint" />
          </mxGeometry>
        </mxCell>
        <mxCell id="tr2L6LvXzopLyFMbQWRh-8" value="" style="endArrow=classic;html=1;rounded=0;" edge="1" parent="1">
          <mxGeometry width="50" height="50" relative="1" as="geometry">
            <mxPoint x="200" y="94.68" as="sourcePoint" />
            <mxPoint x="240" y="95" as="targetPoint" />
          </mxGeometry>
        </mxCell>
        <mxCell id="tr2L6LvXzopLyFMbQWRh-9" value="" style="endArrow=classic;html=1;rounded=0;" edge="1" parent="1">
          <mxGeometry width="50" height="50" relative="1" as="geometry">
            <mxPoint x="430" y="94.68" as="sourcePoint" />
            <mxPoint x="470" y="95" as="targetPoint" />
          </mxGeometry>
        </mxCell>
        <mxCell id="tr2L6LvXzopLyFMbQWRh-10" value="" style="endArrow=classic;html=1;rounded=0;" edge="1" parent="1">
          <mxGeometry width="50" height="50" relative="1" as="geometry">
            <mxPoint x="540" y="94.68" as="sourcePoint" />
            <mxPoint x="580" y="95" as="targetPoint" />
          </mxGeometry>
        </mxCell>
        <mxCell id="tr2L6LvXzopLyFMbQWRh-11" value="" style="endArrow=none;dashed=1;html=1;dashPattern=1 3;strokeWidth=2;rounded=0;" edge="1" parent="1">
          <mxGeometry width="50" height="50" relative="1" as="geometry">
            <mxPoint x="130" y="94.68" as="sourcePoint" />
            <mxPoint x="200" y="94.68" as="targetPoint" />
          </mxGeometry>
        </mxCell>
        <mxCell id="tr2L6LvXzopLyFMbQWRh-12" value="" style="endArrow=none;dashed=1;html=1;dashPattern=1 3;strokeWidth=2;rounded=0;" edge="1" parent="1">
          <mxGeometry width="50" height="50" relative="1" as="geometry">
            <mxPoint x="470" y="94.68" as="sourcePoint" />
            <mxPoint x="540" y="94.68" as="targetPoint" />
          </mxGeometry>
        </mxCell>
        <mxCell id="tr2L6LvXzopLyFMbQWRh-14" value="" style="curved=1;endArrow=classic;html=1;rounded=0;entryX=0.5;entryY=1;entryDx=0;entryDy=0;exitX=0.5;exitY=1;exitDx=0;exitDy=0;" edge="1" parent="1" source="tr2L6LvXzopLyFMbQWRh-2" target="tr2L6LvXzopLyFMbQWRh-3">
          <mxGeometry width="50" height="50" relative="1" as="geometry">
            <mxPoint x="400" y="130" as="sourcePoint" />
            <mxPoint x="360" y="130" as="targetPoint" />
            <Array as="points">
              <mxPoint x="405" y="140" />
              <mxPoint x="340" y="140" />
              <mxPoint x="265" y="140" />
            </Array>
          </mxGeometry>
        </mxCell>
      </root>
    </mxGraphModel>
  </diagram>
</mxfile>
